{
	"asset":{
		"generator":"Khronos glTF Blender I/O v3.5.30",
		"version":"2.0"
	},
	"scene":0,
	"scenes":[
		{
			"name":"Scene",
			"nodes":[
				0
			]
		}
	],
	"nodes":[
		{
			"mesh":0,
			"name":"CaminhoBlocagem"
		}
	],
	"meshes":[
		{
			"name":"Circle",
			"primitives":[
				{
					"attributes":{
						"POSITION":0,
						"TEXCOORD_0":1,
						"NORMAL":2
					},
					"indices":3
				}
			]
		}
	],
	"accessors":[
		{
			"bufferView":0,
			"componentType":5126,
			"count":1424,
			"max":[
				2.7716383934020996,
				0,
				7.047624111175537
			],
			"min":[
				-121.7169189453125,
				-0.9119256138801575,
				-105.35960388183594
			],
			"type":"VEC3"
		},
		{
			"bufferView":1,
			"componentType":5126,
			"count":1424,
			"type":"VEC2"
		},
		{
			"bufferView":2,
			"componentType":5126,
			"count":1424,
			"type":"VEC3"
		},
		{
			"bufferView":3,
			"componentType":5123,
			"count":3024,
			"type":"SCALAR"
		}
	],
	"bufferViews":[
		{
			"buffer":0,
			"byteLength":17088,
			"byteOffset":0,
			"target":34962
		},
		{
			"buffer":0,
			"byteLength":11392,
			"byteOffset":17088,
			"target":34962
		},
		{
			"buffer":0,
			"byteLength":17088,
			"byteOffset":28480,
			"target":34962
		},
		{
			"buffer":0,
			"byteLength":6048,
			"byteOffset":45568,
			"target":34963
		}
	],
	"buffers":[
		{
			"byteLength":51616,
			"uri":"data:application/octet-stream;base64,"
		}
	]
}
