{
	"asset":{
		"generator":"Khronos glTF Blender I/O v3.5.30",
		"version":"2.0"
	},
	"scene":0,
	"scenes":[
		{
			"name":"Scene",
			"nodes":[
				0
			]
		}
	],
	"nodes":[
		{
			"mesh":0,
			"name":"CubosBlocagem",
			"translation":[
				-76.1631088256836,
				-0.32007598876953125,
				-60.64884567260742
			]
		}
	],
	"meshes":[
		{
			"name":"Cube.020",
			"primitives":[
				{
					"attributes":{
						"POSITION":0,
						"TEXCOORD_0":1,
						"NORMAL":2
					},
					"indices":3
				}
			]
		}
	],
	"accessors":[
		{
			"bufferView":0,
			"componentType":5126,
			"count":1224,
			"max":[
				79.12068939208984,
				6.006704330444336,
				68.6993637084961
			],
			"min":[
				-49.009315490722656,
				-5.676344871520996,
				-35.19227600097656
			],
			"type":"VEC3"
		},
		{
			"bufferView":1,
			"componentType":5126,
			"count":1224,
			"type":"VEC2"
		},
		{
			"bufferView":2,
			"componentType":5126,
			"count":1224,
			"type":"VEC3"
		},
		{
			"bufferView":3,
			"componentType":5123,
			"count":1836,
			"type":"SCALAR"
		}
	],
	"bufferViews":[
		{
			"buffer":0,
			"byteLength":14688,
			"byteOffset":0,
			"target":34962
		},
		{
			"buffer":0,
			"byteLength":9792,
			"byteOffset":14688,
			"target":34962
		},
		{
			"buffer":0,
			"byteLength":14688,
			"byteOffset":24480,
			"target":34962
		},
		{
			"buffer":0,
			"byteLength":3672,
			"byteOffset":39168,
			"target":34963
		}
	],
	"buffers":[
		{
			"byteLength":42840,
			"uri":"data:application/octet-stream;base64,"
		}
	]
}
