{
	"asset":{
		"generator":"Khronos glTF Blender I/O v3.5.30",
		"version":"2.0"
	},
	"scene":0,
	"scenes":[
		{
			"name":"Scene",
			"nodes":[
				0
			]
		}
	],
	"nodes":[
		{
			"mesh":0,
			"name":"Plane",
			"scale":[
				3.9043829441070557,
				3.9043829441070557,
				3.9043829441070557
			],
			"translation":[
				0,
				-0.005831722170114517,
				0.006267547607421875
			]
		}
	],
	"meshes":[
		{
			"name":"Plane.002",
			"primitives":[
				{
					"attributes":{
						"POSITION":0,
						"TEXCOORD_0":1,
						"NORMAL":2
					},
					"indices":3
				}
			]
		}
	],
	"accessors":[
		{
			"bufferView":0,
			"componentType":5126,
			"count":20,
			"max":[
				1.6907813549041748,
				0.025727085769176483,
				2.0981199741363525
			],
			"min":[
				-1.6907814741134644,
				0,
				-2.102114200592041
			],
			"type":"VEC3"
		},
		{
			"bufferView":1,
			"componentType":5126,
			"count":20,
			"type":"VEC2"
		},
		{
			"bufferView":2,
			"componentType":5126,
			"count":20,
			"type":"VEC3"
		},
		{
			"bufferView":3,
			"componentType":5123,
			"count":30,
			"type":"SCALAR"
		}
	],
	"bufferViews":[
		{
			"buffer":0,
			"byteLength":240,
			"byteOffset":0,
			"target":34962
		},
		{
			"buffer":0,
			"byteLength":160,
			"byteOffset":240,
			"target":34962
		},
		{
			"buffer":0,
			"byteLength":240,
			"byteOffset":400,
			"target":34962
		},
		{
			"buffer":0,
			"byteLength":60,
			"byteOffset":640,
			"target":34963
		}
	],
	"buffers":[
		{
			"byteLength":700,
			"uri":"data:application/octet-stream;base64,"
		}
	]
}
