{
	"asset":{
		"generator":"Khronos glTF Blender I/O v3.5.30",
		"version":"2.0"
	},
	"scene":0,
	"scenes":[
		{
			"name":"Scene",
			"nodes":[
				0
			]
		}
	],
	"nodes":[
		{
			"mesh":0,
			"name":"Agua",
			"rotation":[
				0,
				0.7071068286895752,
				0,
				0.7071068286895752
			],
			"scale":[
				1.0402865409851074,
				1.0402865409851074,
				1.0402865409851074
			],
			"translation":[
				0,
				-0.184051513671875,
				0.006267547607421875
			]
		}
	],
	"materials":[
		{
			"doubleSided":true,
			"name":"Agua",
			"pbrMetallicRoughness":{
				"baseColorFactor":[
					0.800000011920929,
					0.800000011920929,
					0.800000011920929,
					1
				],
				"metallicFactor":0,
				"roughnessFactor":0.5
			}
		}
	],
	"meshes":[
		{
			"name":"Circle.075",
			"primitives":[
				{
					"attributes":{
						"POSITION":0,
						"TEXCOORD_0":1,
						"NORMAL":2
					},
					"indices":3,
					"material":0
				}
			]
		}
	],
	"accessors":[
		{
			"bufferView":0,
			"componentType":5126,
			"count":22,
			"max":[
				7.889614105224609,
				0.22832423448562622,
				6.3458075523376465
			],
			"min":[
				-7.8746232986450195,
				0.15000000596046448,
				-6.345808029174805
			],
			"type":"VEC3"
		},
		{
			"bufferView":1,
			"componentType":5126,
			"count":22,
			"type":"VEC2"
		},
		{
			"bufferView":2,
			"componentType":5126,
			"count":22,
			"type":"VEC3"
		},
		{
			"bufferView":3,
			"componentType":5123,
			"count":36,
			"type":"SCALAR"
		}
	],
	"bufferViews":[
		{
			"buffer":0,
			"byteLength":264,
			"byteOffset":0,
			"target":34962
		},
		{
			"buffer":0,
			"byteLength":176,
			"byteOffset":264,
			"target":34962
		},
		{
			"buffer":0,
			"byteLength":264,
			"byteOffset":440,
			"target":34962
		},
		{
			"buffer":0,
			"byteLength":72,
			"byteOffset":704,
			"target":34963
		}
	],
	"buffers":[
		{
			"byteLength":776,
			"uri":"data:application/octet-stream;base64,"
		}
	]
}
