{
	"asset":{
		"generator":"Khronos glTF Blender I/O v3.5.30",
		"version":"2.0"
	},
	"scene":0,
	"scenes":[
		{
			"name":"Scene",
			"nodes":[
				0,
				1,
				2,
				3
			]
		}
	],
	"nodes":[
		{
			"mesh":0,
			"name":"FonteHall.004",
			"scale":[
				1.1316299438476562,
				0.07499971985816956,
				1.1316299438476562
			],
			"translation":[
				-5.509831428527832,
				0,
				7.106505393981934
			]
		},
		{
			"mesh":1,
			"name":"FonteHall.003",
			"scale":[
				1.1316299438476562,
				0.07499971985816956,
				1.1316299438476562
			],
			"translation":[
				5.509831428527832,
				0,
				7.106505393981934
			]
		},
		{
			"mesh":2,
			"name":"FonteHall.002",
			"scale":[
				1.1316299438476562,
				0.07499971985816956,
				1.1316299438476562
			],
			"translation":[
				5.509831428527832,
				0,
				-7.109564781188965
			]
		},
		{
			"mesh":3,
			"name":"FonteHall.001",
			"scale":[
				1,
				0.9900000095367432,
				1
			],
			"translation":[
				-5.509831428527832,
				0.0787506103515625,
				-7.109564781188965
			]
		}
	],
	"materials":[
		{
			"doubleSided":true,
			"name":"Atlas_Cenario",
			"pbrMetallicRoughness":{
				"baseColorTexture":{
					"index":0
				},
				"metallicFactor":0,
				"roughnessFactor":0.5
			}
		}
	],
	"meshes":[
		{
			"name":"Cube.183",
			"primitives":[
				{
					"attributes":{
						"POSITION":0,
						"TEXCOORD_0":1,
						"NORMAL":2
					},
					"indices":3,
					"material":0
				}
			]
		},
		{
			"name":"Cube.226",
			"primitives":[
				{
					"attributes":{
						"POSITION":4,
						"TEXCOORD_0":5,
						"NORMAL":6
					},
					"indices":7,
					"material":0
				}
			]
		},
		{
			"name":"Cube.182",
			"primitives":[
				{
					"attributes":{
						"POSITION":8,
						"TEXCOORD_0":9,
						"NORMAL":10
					},
					"indices":11,
					"material":0
				}
			]
		},
		{
			"name":"Cube.275",
			"primitives":[
				{
					"attributes":{
						"POSITION":12,
						"TEXCOORD_0":13,
						"NORMAL":14
					},
					"indices":15,
					"material":0
				}
			]
		}
	],
	"textures":[
		{
			"sampler":0,
			"source":0
		}
	],
	"images":[
		{
			"bufferView":4,
			"mimeType":"image/png",
			"name":"Atlas_Cenario"
		}
	],
	"accessors":[
		{
			"bufferView":0,
			"componentType":5126,
			"count":3228,
			"max":[
				1,
				9.638933181762695,
				1.5743927955627441
			],
			"min":[
				-1.5743930339813232,
				-2.5272369384765625e-05,
				-1.0011472702026367
			],
			"type":"VEC3"
		},
		{
			"bufferView":1,
			"componentType":5126,
			"count":3228,
			"type":"VEC2"
		},
		{
			"bufferView":2,
			"componentType":5126,
			"count":3228,
			"type":"VEC3"
		},
		{
			"bufferView":3,
			"componentType":5123,
			"count":4854,
			"type":"SCALAR"
		},
		{
			"bufferView":5,
			"componentType":5126,
			"count":3228,
			"max":[
				1.5743920803070068,
				9.638933181762695,
				1.5743918418884277
			],
			"min":[
				-1.0011487007141113,
				-2.5272369384765625e-05,
				-1.0000016689300537
			],
			"type":"VEC3"
		},
		{
			"bufferView":6,
			"componentType":5126,
			"count":3228,
			"type":"VEC2"
		},
		{
			"bufferView":7,
			"componentType":5126,
			"count":3228,
			"type":"VEC3"
		},
		{
			"bufferView":8,
			"componentType":5123,
			"count":4854,
			"type":"SCALAR"
		},
		{
			"bufferView":9,
			"componentType":5126,
			"count":3228,
			"max":[
				1.5743920803070068,
				9.638933181762695,
				1.0011472702026367
			],
			"min":[
				-1.0000007152557373,
				-2.5272369384765625e-05,
				-1.5743935108184814
			],
			"type":"VEC3"
		},
		{
			"bufferView":10,
			"componentType":5126,
			"count":3228,
			"type":"VEC2"
		},
		{
			"bufferView":11,
			"componentType":5126,
			"count":3228,
			"type":"VEC3"
		},
		{
			"bufferView":12,
			"componentType":5123,
			"count":4854,
			"type":"SCALAR"
		},
		{
			"bufferView":13,
			"componentType":5126,
			"count":3228,
			"max":[
				1.1329288482666016,
				0.6441649794578552,
				1.1316297054290771
			],
			"min":[
				-1.781630277633667,
				-0.07875213772058487,
				-1.781630277633667
			],
			"type":"VEC3"
		},
		{
			"bufferView":14,
			"componentType":5126,
			"count":3228,
			"type":"VEC2"
		},
		{
			"bufferView":15,
			"componentType":5126,
			"count":3228,
			"type":"VEC3"
		},
		{
			"bufferView":16,
			"componentType":5123,
			"count":4854,
			"type":"SCALAR"
		}
	],
	"bufferViews":[
		{
			"buffer":0,
			"byteLength":38736,
			"byteOffset":0,
			"target":34962
		},
		{
			"buffer":0,
			"byteLength":25824,
			"byteOffset":38736,
			"target":34962
		},
		{
			"buffer":0,
			"byteLength":38736,
			"byteOffset":64560,
			"target":34962
		},
		{
			"buffer":0,
			"byteLength":9708,
			"byteOffset":103296,
			"target":34963
		},
		{
			"buffer":0,
			"byteLength":424609,
			"byteOffset":113004
		},
		{
			"buffer":0,
			"byteLength":38736,
			"byteOffset":537616,
			"target":34962
		},
		{
			"buffer":0,
			"byteLength":25824,
			"byteOffset":576352,
			"target":34962
		},
		{
			"buffer":0,
			"byteLength":38736,
			"byteOffset":602176,
			"target":34962
		},
		{
			"buffer":0,
			"byteLength":9708,
			"byteOffset":640912,
			"target":34963
		},
		{
			"buffer":0,
			"byteLength":38736,
			"byteOffset":650620,
			"target":34962
		},
		{
			"buffer":0,
			"byteLength":25824,
			"byteOffset":689356,
			"target":34962
		},
		{
			"buffer":0,
			"byteLength":38736,
			"byteOffset":715180,
			"target":34962
		},
		{
			"buffer":0,
			"byteLength":9708,
			"byteOffset":753916,
			"target":34963
		},
		{
			"buffer":0,
			"byteLength":38736,
			"byteOffset":763624,
			"target":34962
		},
		{
			"buffer":0,
			"byteLength":25824,
			"byteOffset":802360,
			"target":34962
		},
		{
			"buffer":0,
			"byteLength":38736,
			"byteOffset":828184,
			"target":34962
		},
		{
			"buffer":0,
			"byteLength":9708,
			"byteOffset":866920,
			"target":34963
		}
	],
	"samplers":[
		{
			"magFilter":9729,
			"minFilter":9987
		}
	],
	"buffers":[
		{
			"byteLength":876628,
			"uri":"data:application/octet-stream;base64,"
		}
	]
}
