{
	"asset":{
		"generator":"Khronos glTF Blender I/O v3.5.30",
		"version":"2.0"
	},
	"extensionsUsed":[
		"KHR_materials_emissive_strength"
	],
	"scene":0,
	"scenes":[
		{
			"name":"Scene",
			"nodes":[
				0
			]
		}
	],
	"nodes":[
		{
			"mesh":0,
			"name":"TetoHall",
			"scale":[
				7.5,
				1,
				9
			],
			"translation":[
				0,
				4.000003814697266,
				0.006267547607421875
			]
		}
	],
	"materials":[
		{
			"doubleSided":true,
			"name":"Atlas_Cenario",
			"pbrMetallicRoughness":{
				"baseColorTexture":{
					"index":0
				},
				"metallicFactor":0,
				"roughnessFactor":0.5
			}
		},
		{
			"doubleSided":true,
			"emissiveFactor":[
				0.010508301686749282,
				0.6058723609686101,
				1
			],
			"extensions":{
				"KHR_materials_emissive_strength":{
					"emissiveStrength":9.771084487438202
				}
			},
			"name":"NeonAzul",
			"pbrMetallicRoughness":{
				"baseColorFactor":[
					0,
					0,
					0,
					1
				]
			}
		}
	],
	"meshes":[
		{
			"name":"Plane.093",
			"primitives":[
				{
					"attributes":{
						"POSITION":0,
						"TEXCOORD_0":1,
						"NORMAL":2
					},
					"indices":3,
					"material":0
				},
				{
					"attributes":{
						"POSITION":4,
						"TEXCOORD_0":5,
						"NORMAL":6
					},
					"indices":7,
					"material":1
				}
			]
		}
	],
	"textures":[
		{
			"sampler":0,
			"source":0
		}
	],
	"images":[
		{
			"bufferView":4,
			"mimeType":"image/png",
			"name":"Atlas_Cenario"
		}
	],
	"accessors":[
		{
			"bufferView":0,
			"componentType":5126,
			"count":164,
			"max":[
				0.9860000610351562,
				0,
				0.9982197284698486
			],
			"min":[
				-0.9859104156494141,
				-0.30003127455711365,
				-0.9997180104255676
			],
			"type":"VEC3"
		},
		{
			"bufferView":1,
			"componentType":5126,
			"count":164,
			"type":"VEC2"
		},
		{
			"bufferView":2,
			"componentType":5126,
			"count":164,
			"type":"VEC3"
		},
		{
			"bufferView":3,
			"componentType":5123,
			"count":246,
			"type":"SCALAR"
		},
		{
			"bufferView":5,
			"componentType":5126,
			"count":272,
			"max":[
				0.9726671576499939,
				-0.05003146827220917,
				0.9871087074279785
			],
			"min":[
				-0.972576916217804,
				-0.10003147274255753,
				-0.9886071085929871
			],
			"type":"VEC3"
		},
		{
			"bufferView":6,
			"componentType":5126,
			"count":272,
			"type":"VEC2"
		},
		{
			"bufferView":7,
			"componentType":5126,
			"count":272,
			"type":"VEC3"
		},
		{
			"bufferView":8,
			"componentType":5123,
			"count":408,
			"type":"SCALAR"
		}
	],
	"bufferViews":[
		{
			"buffer":0,
			"byteLength":1968,
			"byteOffset":0,
			"target":34962
		},
		{
			"buffer":0,
			"byteLength":1312,
			"byteOffset":1968,
			"target":34962
		},
		{
			"buffer":0,
			"byteLength":1968,
			"byteOffset":3280,
			"target":34962
		},
		{
			"buffer":0,
			"byteLength":492,
			"byteOffset":5248,
			"target":34963
		},
		{
			"buffer":0,
			"byteLength":424609,
			"byteOffset":5740
		},
		{
			"buffer":0,
			"byteLength":3264,
			"byteOffset":430352,
			"target":34962
		},
		{
			"buffer":0,
			"byteLength":2176,
			"byteOffset":433616,
			"target":34962
		},
		{
			"buffer":0,
			"byteLength":3264,
			"byteOffset":435792,
			"target":34962
		},
		{
			"buffer":0,
			"byteLength":816,
			"byteOffset":439056,
			"target":34963
		}
	],
	"samplers":[
		{
			"magFilter":9729,
			"minFilter":9987
		}
	],
	"buffers":[
		{
			"byteLength":439872,
			"uri":"data:application/octet-stream;base64,"
		}
	]
}
