{
  "accessors": [
    {
      "bufferView": 2,
      "componentType": 5126,
      "count": 242,
      "max": [
        6.125082492828369,
        10.732757568359375,
        -21.464569091796875
      ],
      "min": [
        -6.125082492828369,
        4.725155353546143,
        -24.29009246826172
      ],
      "type": "VEC3"
    },
    {
      "bufferView": 2,
      "byteOffset": 2904,
      "componentType": 5126,
      "count": 242,
      "max": [
        1.0,
        0.9974799156188965,
        0.9702973365783691
      ],
      "min": [
        -1.0,
        -0.9974799752235413,
        -0.9702972173690796
      ],
      "type": "VEC3"
    },
    {
      "bufferView": 1,
      "componentType": 5126,
      "count": 242,
      "max": [
        0.15543270111083984,
        0.9851717352867126
      ],
      "min": [
        0.01714622974395752,
        0.8425086140632629
      ],
      "type": "VEC2"
    },
    {
      "bufferView": 0,
      "componentType": 5125,
      "count": 672,
      "type": "SCALAR"
    },
    {
      "bufferView": 2,
      "byteOffset": 5808,
      "componentType": 5126,
      "count": 1084,
      "max": [
        23.708473205566406,
        11.951276779174805,
        23.708473205566406
      ],
      "min": [
        -23.708473205566406,
        0.0,
        -23.708473205566406
      ],
      "type": "VEC3"
    },
    {
      "bufferView": 2,
      "byteOffset": 18816,
      "componentType": 5126,
      "count": 1084,
      "max": [
        1.0,
        1.0,
        1.0
      ],
      "min": [
        -1.0,
        -0.8528725504875183,
        -1.0
      ],
      "type": "VEC3"
    },
    {
      "bufferView": 1,
      "byteOffset": 1936,
      "componentType": 5126,
      "count": 1084,
      "max": [
        0.984240710735321,
        0.9764040112495422
      ],
      "min": [
        0.015027403831481934,
        0.01336979866027832
      ],
      "type": "VEC2"
    },
    {
      "bufferView": 0,
      "byteOffset": 2688,
      "componentType": 5125,
      "count": 2748,
      "type": "SCALAR"
    },
    {
      "bufferView": 2,
      "byteOffset": 31824,
      "componentType": 5126,
      "count": 242,
      "max": [
        24.439250946044922,
        10.732757568359375,
        6.5931396484375
      ],
      "min": [
        21.613727569580078,
        4.725155353546143,
        -5.657025337219238
      ],
      "type": "VEC3"
    },
    {
      "bufferView": 2,
      "byteOffset": 34728,
      "componentType": 5126,
      "count": 242,
      "max": [
        0.970298171043396,
        0.9974799752235413,
        1.0
      ],
      "min": [
        -0.970297634601593,
        -0.9974799752235413,
        -1.0
      ],
      "type": "VEC3"
    },
    {
      "bufferView": 1,
      "byteOffset": 10608,
      "componentType": 5126,
      "count": 242,
      "max": [
        0.9719415307044983,
        0.5924443602561951
      ],
      "min": [
        0.833655059337616,
        0.44978123903274536
      ],
      "type": "VEC2"
    },
    {
      "bufferView": 0,
      "byteOffset": 13680,
      "componentType": 5125,
      "count": 672,
      "type": "SCALAR"
    },
    {
      "bufferView": 2,
      "byteOffset": 37632,
      "componentType": 5126,
      "count": 242,
      "max": [
        6.125082492828369,
        10.732757568359375,
        24.29058837890625
      ],
      "min": [
        -6.125082492828369,
        4.725155353546143,
        21.465065002441406
      ],
      "type": "VEC3"
    },
    {
      "bufferView": 2,
      "byteOffset": 40536,
      "componentType": 5126,
      "count": 242,
      "max": [
        1.0,
        0.9974799156188965,
        0.9702972173690796
      ],
      "min": [
        -1.0,
        -0.9974799752235413,
        -0.9702973365783691
      ],
      "type": "VEC3"
    },
    {
      "bufferView": 1,
      "byteOffset": 12544,
      "componentType": 5126,
      "count": 242,
      "max": [
        0.7548389434814453,
        0.5913430452346802
      ],
      "min": [
        0.616552472114563,
        0.4486798942089081
      ],
      "type": "VEC2"
    },
    {
      "bufferView": 0,
      "byteOffset": 16368,
      "componentType": 5125,
      "count": 672,
      "type": "SCALAR"
    },
    {
      "bufferView": 2,
      "byteOffset": 43440,
      "componentType": 5126,
      "count": 600,
      "max": [
        2.105281114578247,
        4.817288398742676,
        2.1052792072296143
      ],
      "min": [
        -2.1052770614624023,
        1.595206618309021,
        -2.1052792072296143
      ],
      "type": "VEC3"
    },
    {
      "bufferView": 2,
      "byteOffset": 50640,
      "componentType": 5126,
      "count": 600,
      "max": [
        0.978822648525238,
        1.0,
        0.9841187596321106
      ],
      "min": [
        -0.978807806968689,
        -0.8976394534111023,
        -0.9788222312927246
      ],
      "type": "VEC3"
    },
    {
      "bufferView": 1,
      "byteOffset": 14480,
      "componentType": 5126,
      "count": 600,
      "max": [
        0.6199033260345459,
        0.9160466194152832
      ],
      "min": [
        0.336315393447876,
        0.7462975978851318
      ],
      "type": "VEC2"
    },
    {
      "bufferView": 0,
      "byteOffset": 19056,
      "componentType": 5125,
      "count": 1182,
      "type": "SCALAR"
    },
    {
      "bufferView": 2,
      "byteOffset": 57840,
      "componentType": 5126,
      "count": 256,
      "max": [
        0.9349076151847839,
        6.546872615814209,
        0.9146830439567566
      ],
      "min": [
        -1.0889209508895874,
        5.430668354034424,
        -0.9146830439567566
      ],
      "type": "VEC3"
    },
    {
      "bufferView": 2,
      "byteOffset": 60912,
      "componentType": 5126,
      "count": 256,
      "max": [
        1.0,
        1.0,
        1.0
      ],
      "min": [
        -1.0,
        -1.0,
        -1.0
      ],
      "type": "VEC3"
    },
    {
      "bufferView": 1,
      "byteOffset": 19280,
      "componentType": 5126,
      "count": 256,
      "max": [
        0.33178073167800903,
        0.9500179290771484
      ],
      "min": [
        0.0,
        0.0
      ],
      "type": "VEC2"
    },
    {
      "bufferView": 0,
      "byteOffset": 23784,
      "componentType": 5125,
      "count": 444,
      "type": "SCALAR"
    }
  ],
  "asset": {
    "extras": {
      "author": "Teraclon (https://sketchfab.com/Teraclon)",
      "license": "CC-BY-4.0 (http://creativecommons.org/licenses/by/4.0/)",
      "source": "https://sketchfab.com/3d-models/space-room-27d6d9fd41e649c883ed3abbe38f7269",
      "title": "Space Room"
    },
    "generator": "Sketchfab-12.68.0",
    "version": "2.0"
  },
  "bufferViews": [
    {
      "buffer": 0,
      "byteLength": 25560,
      "name": "floatBufferViews",
      "target": 34963
    },
    {
      "buffer": 0,
      "byteLength": 21328,
      "byteOffset": 25560,
      "byteStride": 8,
      "name": "floatBufferViews",
      "target": 34962
    },
    {
      "buffer": 0,
      "byteLength": 63984,
      "byteOffset": 46888,
      "byteStride": 12,
      "name": "floatBufferViews",
      "target": 34962
    }
  ],
  "buffers": [
    {
      "byteLength": 110872,
      "uri": "scene.bin"
    }
  ],
  "images": [
    {
      "uri": "textures/blinn2_baseColor.png"
    }
  ],
  "materials": [
    {
      "doubleSided": true,
      "name": "blinn2",
      "pbrMetallicRoughness": {
        "baseColorTexture": {
          "index": 0
        },
        "metallicFactor": 0.0,
        "roughnessFactor": 0.2421875
      }
    }
  ],
  "meshes": [
    {
      "name": "polySurface1_blinn2_0",
      "primitives": [
        {
          "attributes": {
            "NORMAL": 1,
            "POSITION": 0,
            "TEXCOORD_0": 2
          },
          "indices": 3,
          "material": 0,
          "mode": 4
        }
      ]
    },
    {
      "name": "polySurface2_blinn2_0",
      "primitives": [
        {
          "attributes": {
            "NORMAL": 5,
            "POSITION": 4,
            "TEXCOORD_0": 6
          },
          "indices": 7,
          "material": 0,
          "mode": 4
        }
      ]
    },
    {
      "name": "polySurface3_blinn2_0",
      "primitives": [
        {
          "attributes": {
            "NORMAL": 9,
            "POSITION": 8,
            "TEXCOORD_0": 10
          },
          "indices": 11,
          "material": 0,
          "mode": 4
        }
      ]
    },
    {
      "name": "polySurface4_blinn2_0",
      "primitives": [
        {
          "attributes": {
            "NORMAL": 13,
            "POSITION": 12,
            "TEXCOORD_0": 14
          },
          "indices": 15,
          "material": 0,
          "mode": 4
        }
      ]
    },
    {
      "name": "polySurface5_blinn2_0",
      "primitives": [
        {
          "attributes": {
            "NORMAL": 17,
            "POSITION": 16,
            "TEXCOORD_0": 18
          },
          "indices": 19,
          "material": 0,
          "mode": 4
        }
      ]
    },
    {
      "name": "polySurface6_blinn2_0",
      "primitives": [
        {
          "attributes": {
            "NORMAL": 21,
            "POSITION": 20,
            "TEXCOORD_0": 22
          },
          "indices": 23,
          "material": 0,
          "mode": 4
        }
      ]
    }
  ],
  "nodes": [
    {
      "children": [
        1
      ],
      "matrix": [
        1.0,
        0.0,
        0.0,
        0.0,
        0.0,
        2.220446049250313e-16,
        -1.0,
        0.0,
        0.0,
        1.0,
        2.220446049250313e-16,
        0.0,
        0.0,
        0.0,
        0.0,
        1.0
      ],
      "name": "Sketchfab_model"
    },
    {
      "children": [
        2
      ],
      "matrix": [
        1.0,
        0.0,
        0.0,
        0.0,
        0.0,
        0.0,
        1.0,
        0.0,
        0.0,
        -1.0,
        0.0,
        0.0,
        0.0,
        0.0,
        0.0,
        1.0
      ],
      "name": "b8c0be0acb3e4ba298cc1ba80fe546bc.fbx"
    },
    {
      "children": [
        3
      ],
      "name": "RootNode"
    },
    {
      "children": [
        4,
        6,
        8,
        10,
        12,
        14
      ],
      "name": "Room"
    },
    {
      "children": [
        5
      ],
      "name": "polySurface1"
    },
    {
      "mesh": 0,
      "name": "polySurface1_blinn2_0"
    },
    {
      "children": [
        7
      ],
      "name": "polySurface2"
    },
    {
      "mesh": 1,
      "name": "polySurface2_blinn2_0"
    },
    {
      "children": [
        9
      ],
      "name": "polySurface3"
    },
    {
      "mesh": 2,
      "name": "polySurface3_blinn2_0"
    },
    {
      "children": [
        11
      ],
      "name": "polySurface4"
    },
    {
      "mesh": 3,
      "name": "polySurface4_blinn2_0"
    },
    {
      "children": [
        13
      ],
      "name": "polySurface5"
    },
    {
      "mesh": 4,
      "name": "polySurface5_blinn2_0"
    },
    {
      "children": [
        15
      ],
      "name": "polySurface6"
    },
    {
      "mesh": 5,
      "name": "polySurface6_blinn2_0"
    }
  ],
  "samplers": [
    {
      "magFilter": 9729,
      "minFilter": 9987,
      "wrapS": 10497,
      "wrapT": 10497
    }
  ],
  "scene": 0,
  "scenes": [
    {
      "name": "Sketchfab_Scene",
      "nodes": [
        0
      ]
    }
  ],
  "textures": [
    {
      "sampler": 0,
      "source": 0
    }
  ]
}
