{
	"asset":{
		"generator":"Khronos glTF Blender I/O v3.5.30",
		"version":"2.0"
	},
	"scene":0,
	"scenes":[
		{
			"name":"Scene",
			"nodes":[
				0
			]
		}
	],
	"nodes":[
		{
			"mesh":0,
			"name":"Circle.001",
			"translation":[
				0,
				0.7984213829040527,
				0
			]
		}
	],
	"meshes":[
		{
			"name":"Circle.002",
			"primitives":[
				{
					"attributes":{
						"POSITION":0,
						"TEXCOORD_0":1,
						"NORMAL":2
					},
					"indices":3
				}
			]
		}
	],
	"accessors":[
		{
			"bufferView":0,
			"componentType":5126,
			"count":688,
			"max":[
				34.89042282104492,
				-0.08869603276252747,
				10.387182235717773
			],
			"min":[
				-34.89067840576172,
				-0.4920365810394287,
				-2.9880497455596924
			],
			"type":"VEC3"
		},
		{
			"bufferView":1,
			"componentType":5126,
			"count":688,
			"type":"VEC2"
		},
		{
			"bufferView":2,
			"componentType":5126,
			"count":688,
			"type":"VEC3"
		},
		{
			"bufferView":3,
			"componentType":5123,
			"count":1284,
			"type":"SCALAR"
		}
	],
	"bufferViews":[
		{
			"buffer":0,
			"byteLength":8256,
			"byteOffset":0,
			"target":34962
		},
		{
			"buffer":0,
			"byteLength":5504,
			"byteOffset":8256,
			"target":34962
		},
		{
			"buffer":0,
			"byteLength":8256,
			"byteOffset":13760,
			"target":34962
		},
		{
			"buffer":0,
			"byteLength":2568,
			"byteOffset":22016,
			"target":34963
		}
	],
	"buffers":[
		{
			"byteLength":24584,
			"uri":"data:application/octet-stream;base64,"
		}
	]
}
