{
	"asset":{
		"generator":"Khronos glTF Blender I/O v3.5.30",
		"version":"2.0"
	},
	"scene":0,
	"scenes":[
		{
			"name":"Scene",
			"nodes":[
				0
			]
		}
	],
	"nodes":[
		{
			"mesh":0,
			"name":"Teclado_Projecao.004",
			"rotation":[
				0,
				-1,
				0,
				4.371139183945161e-08
			],
			"scale":[
				0.7674826979637146,
				0.7674826979637146,
				0.7674826979637146
			],
			"translation":[
				-0.19364285469055176,
				0.7990571856498718,
				-36.12421417236328
			]
		}
	],
	"meshes":[
		{
			"name":"Plane.195",
			"primitives":[
				{
					"attributes":{
						"POSITION":0,
						"TEXCOORD_0":1,
						"NORMAL":2
					},
					"indices":3
				}
			]
		}
	],
	"accessors":[
		{
			"bufferView":0,
			"componentType":5126,
			"count":356,
			"max":[
				29.695974349975586,
				0.5603283047676086,
				0.3412148356437683
			],
			"min":[
				-27.201841354370117,
				0.0027340776287019253,
				-42.294281005859375
			],
			"type":"VEC3"
		},
		{
			"bufferView":1,
			"componentType":5126,
			"count":356,
			"type":"VEC2"
		},
		{
			"bufferView":2,
			"componentType":5126,
			"count":356,
			"type":"VEC3"
		},
		{
			"bufferView":3,
			"componentType":5123,
			"count":576,
			"type":"SCALAR"
		}
	],
	"bufferViews":[
		{
			"buffer":0,
			"byteLength":4272,
			"byteOffset":0,
			"target":34962
		},
		{
			"buffer":0,
			"byteLength":2848,
			"byteOffset":4272,
			"target":34962
		},
		{
			"buffer":0,
			"byteLength":4272,
			"byteOffset":7120,
			"target":34962
		},
		{
			"buffer":0,
			"byteLength":1152,
			"byteOffset":11392,
			"target":34963
		}
	],
	"buffers":[
		{
			"byteLength":12544,
			"uri":"data:application/octet-stream;base64,"
		}
	]
}
