{
	"asset":{
		"generator":"Khronos glTF Blender I/O v3.5.30",
		"version":"2.0"
	},
	"scene":0,
	"scenes":[
		{
			"name":"Scene",
			"nodes":[
				0
			]
		}
	],
	"nodes":[
		{
			"mesh":0,
			"name":"Monitor_Mesa_Tela.001",
			"rotation":[
				0,
				-1,
				0,
				4.371139183945161e-08
			],
			"scale":[
				0.7342833876609802,
				0.7342833876609802,
				0.7342833876609802
			],
			"translation":[
				8.081365376710892e-05,
				0.7977975010871887,
				-35.80914306640625
			]
		}
	],
	"meshes":[
		{
			"name":"Plane.192",
			"primitives":[
				{
					"attributes":{
						"POSITION":0,
						"TEXCOORD_0":1,
						"NORMAL":2
					},
					"indices":3
				}
			]
		}
	],
	"accessors":[
		{
			"bufferView":0,
			"componentType":5126,
			"count":168,
			"max":[
				30.65581512451172,
				1.3311822414398193,
				0.6460797190666199
			],
			"min":[
				-27.285703659057617,
				0.24675621092319489,
				-43.7774543762207
			],
			"type":"VEC3"
		},
		{
			"bufferView":1,
			"componentType":5126,
			"count":168,
			"type":"VEC2"
		},
		{
			"bufferView":2,
			"componentType":5126,
			"count":168,
			"type":"VEC3"
		},
		{
			"bufferView":3,
			"componentType":5123,
			"count":252,
			"type":"SCALAR"
		}
	],
	"bufferViews":[
		{
			"buffer":0,
			"byteLength":2016,
			"byteOffset":0,
			"target":34962
		},
		{
			"buffer":0,
			"byteLength":1344,
			"byteOffset":2016,
			"target":34962
		},
		{
			"buffer":0,
			"byteLength":2016,
			"byteOffset":3360,
			"target":34962
		},
		{
			"buffer":0,
			"byteLength":504,
			"byteOffset":5376,
			"target":34963
		}
	],
	"buffers":[
		{
			"byteLength":5880,
			"uri":"data:application/octet-stream;base64,"
		}
	]
}
