{
	"asset":{
		"generator":"Khronos glTF Blender I/O v3.5.30",
		"version":"2.0"
	},
	"scene":0,
	"scenes":[
		{
			"name":"Scene",
			"nodes":[
				0
			]
		}
	],
	"nodes":[
		{
			"mesh":0,
			"name":"Dino.001",
			"scale":[
				4.881951332092285,
				0.05000000074505806,
				4.881951332092285
			],
			"translation":[
				32.58272171020508,
				0.05000000074505806,
				-67.85123443603516
			]
		}
	],
	"materials":[
		{
			"doubleSided":true,
			"name":"Atlas_Cenario",
			"pbrMetallicRoughness":{
				"baseColorTexture":{
					"index":0
				},
				"metallicFactor":0,
				"roughnessFactor":0.5
			}
		}
	],
	"meshes":[
		{
			"name":"Cylinder.005",
			"primitives":[
				{
					"attributes":{
						"POSITION":0,
						"TEXCOORD_0":1,
						"NORMAL":2
					},
					"indices":3,
					"material":0
				}
			]
		}
	],
	"textures":[
		{
			"sampler":0,
			"source":0
		}
	],
	"images":[
		{
			"bufferView":4,
			"mimeType":"image/png",
			"name":"Atlas_Cenario"
		}
	],
	"accessors":[
		{
			"bufferView":0,
			"componentType":5126,
			"count":6860,
			"max":[
				1.2943170070648193,
				98.32337188720703,
				1
			],
			"min":[
				-1.3747711181640625,
				-1,
				-1
			],
			"type":"VEC3"
		},
		{
			"bufferView":1,
			"componentType":5126,
			"count":6860,
			"type":"VEC2"
		},
		{
			"bufferView":2,
			"componentType":5126,
			"count":6860,
			"type":"VEC3"
		},
		{
			"bufferView":3,
			"componentType":5123,
			"count":28926,
			"type":"SCALAR"
		}
	],
	"bufferViews":[
		{
			"buffer":0,
			"byteLength":82320,
			"byteOffset":0,
			"target":34962
		},
		{
			"buffer":0,
			"byteLength":54880,
			"byteOffset":82320,
			"target":34962
		},
		{
			"buffer":0,
			"byteLength":82320,
			"byteOffset":137200,
			"target":34962
		},
		{
			"buffer":0,
			"byteLength":57852,
			"byteOffset":219520,
			"target":34963
		},
		{
			"buffer":0,
			"byteLength":424609,
			"byteOffset":277372
		}
	],
	"samplers":[
		{
			"magFilter":9729,
			"minFilter":9987
		}
	],
	"buffers":[
		{
			"byteLength":701984,
			"uri":"data:application/octet-stream;base64,"
		}
	]
}
