{
	"asset":{
		"generator":"Khronos glTF Blender I/O v3.5.30",
		"version":"2.0"
	},
	"scene":0,
	"scenes":[
		{
			"name":"Scene",
			"nodes":[
				0
			]
		}
	],
	"nodes":[
		{
			"mesh":0,
			"name":"MicroscopioEletronico",
			"rotation":[
				0,
				0.4226182699203491,
				0,
				0.9063078165054321
			],
			"scale":[
				1.004947543144226,
				1,
				1.004947543144226
			],
			"translation":[
				12.497665405273438,
				0.036785244941711426,
				-75.03160858154297
			]
		}
	],
	"materials":[
		{
			"doubleSided":true,
			"name":"Atlas_Cenario",
			"pbrMetallicRoughness":{
				"baseColorTexture":{
					"index":0
				},
				"metallicFactor":0,
				"roughnessFactor":0.5
			}
		}
	],
	"meshes":[
		{
			"name":"Cube.294",
			"primitives":[
				{
					"attributes":{
						"POSITION":0,
						"TEXCOORD_0":1,
						"NORMAL":2
					},
					"indices":3,
					"material":0
				}
			]
		}
	],
	"textures":[
		{
			"sampler":0,
			"source":0
		}
	],
	"images":[
		{
			"bufferView":4,
			"mimeType":"image/png",
			"name":"Atlas_Cenario"
		}
	],
	"accessors":[
		{
			"bufferView":0,
			"componentType":5126,
			"count":3723,
			"max":[
				1.0057628154754639,
				3.608743667602539,
				0.9950767755508423
			],
			"min":[
				-0.9950767755508423,
				0.004735380411148071,
				-0.9950767755508423
			],
			"type":"VEC3"
		},
		{
			"bufferView":1,
			"componentType":5126,
			"count":3723,
			"type":"VEC2"
		},
		{
			"bufferView":2,
			"componentType":5126,
			"count":3723,
			"type":"VEC3"
		},
		{
			"bufferView":3,
			"componentType":5123,
			"count":6405,
			"type":"SCALAR"
		}
	],
	"bufferViews":[
		{
			"buffer":0,
			"byteLength":44676,
			"byteOffset":0,
			"target":34962
		},
		{
			"buffer":0,
			"byteLength":29784,
			"byteOffset":44676,
			"target":34962
		},
		{
			"buffer":0,
			"byteLength":44676,
			"byteOffset":74460,
			"target":34962
		},
		{
			"buffer":0,
			"byteLength":12810,
			"byteOffset":119136,
			"target":34963
		},
		{
			"buffer":0,
			"byteLength":424609,
			"byteOffset":131948
		}
	],
	"samplers":[
		{
			"magFilter":9729,
			"minFilter":9987
		}
	],
	"buffers":[
		{
			"byteLength":556560,
			"uri":"data:application/octet-stream;base64,"
		}
	]
}
