{
	"asset":{
		"generator":"Khronos glTF Blender I/O v3.5.30",
		"version":"2.0"
	},
	"scene":0,
	"scenes":[
		{
			"name":"Scene",
			"nodes":[
				0,
				1
			]
		}
	],
	"nodes":[
		{
			"mesh":0,
			"name":"Mesa_Com_Globo_Globo",
			"rotation":[
				0,
				-0.7071068286895752,
				0,
				0.7071068286895752
			],
			"translation":[
				0,
				0.0006256103515625,
				16.737751007080078
			]
		},
		{
			"mesh":1,
			"name":"Mesa_Com_Globo_Holo",
			"rotation":[
				0,
				-1,
				0,
				1.6292068494294654e-07
			],
			"translation":[
				0,
				0.0006256103515625,
				16.737751007080078
			]
		}
	],
	"materials":[
		{
			"doubleSided":true,
			"name":"Projecao",
			"pbrMetallicRoughness":{
				"baseColorFactor":[
					0.800000011920929,
					0.800000011920929,
					0.800000011920929,
					1
				],
				"metallicFactor":0,
				"roughnessFactor":0.5
			}
		}
	],
	"meshes":[
		{
			"name":"Sphere.003",
			"primitives":[
				{
					"attributes":{
						"POSITION":0,
						"TEXCOORD_0":1,
						"NORMAL":2
					},
					"indices":3,
					"material":0
				}
			]
		},
		{
			"name":"Sphere.002",
			"primitives":[
				{
					"attributes":{
						"POSITION":4,
						"TEXCOORD_0":5,
						"NORMAL":6
					},
					"indices":7,
					"material":0
				}
			]
		}
	],
	"accessors":[
		{
			"bufferView":0,
			"componentType":5126,
			"count":15881,
			"max":[
				0.9616647362709045,
				2.998840093612671,
				0.961665689945221
			],
			"min":[
				-1.0018824338912964,
				0.9950763583183289,
				-0.9616461992263794
			],
			"type":"VEC3"
		},
		{
			"bufferView":1,
			"componentType":5126,
			"count":15881,
			"type":"VEC2"
		},
		{
			"bufferView":2,
			"componentType":5126,
			"count":15881,
			"type":"VEC3"
		},
		{
			"bufferView":3,
			"componentType":5123,
			"count":22812,
			"type":"SCALAR"
		},
		{
			"bufferView":4,
			"componentType":5126,
			"count":184,
			"max":[
				8.703123092651367,
				1.6419267654418945,
				3.223219871520996
			],
			"min":[
				-8.702291488647461,
				0.3876936435699463,
				-11.470399856567383
			],
			"type":"VEC3"
		},
		{
			"bufferView":5,
			"componentType":5126,
			"count":184,
			"type":"VEC2"
		},
		{
			"bufferView":6,
			"componentType":5126,
			"count":184,
			"type":"VEC3"
		},
		{
			"bufferView":7,
			"componentType":5123,
			"count":408,
			"type":"SCALAR"
		}
	],
	"bufferViews":[
		{
			"buffer":0,
			"byteLength":190572,
			"byteOffset":0,
			"target":34962
		},
		{
			"buffer":0,
			"byteLength":127048,
			"byteOffset":190572,
			"target":34962
		},
		{
			"buffer":0,
			"byteLength":190572,
			"byteOffset":317620,
			"target":34962
		},
		{
			"buffer":0,
			"byteLength":45624,
			"byteOffset":508192,
			"target":34963
		},
		{
			"buffer":0,
			"byteLength":2208,
			"byteOffset":553816,
			"target":34962
		},
		{
			"buffer":0,
			"byteLength":1472,
			"byteOffset":556024,
			"target":34962
		},
		{
			"buffer":0,
			"byteLength":2208,
			"byteOffset":557496,
			"target":34962
		},
		{
			"buffer":0,
			"byteLength":816,
			"byteOffset":559704,
			"target":34963
		}
	],
	"buffers":[
		{
			"byteLength":560520,
			"uri":"data:application/octet-stream;base64,"
		}
	]
}
