{
	"asset":{
		"generator":"Khronos glTF Blender I/O v3.5.30",
		"version":"2.0"
	},
	"scene":0,
	"scenes":[
		{
			"name":"Scene",
			"nodes":[
				0
			]
		}
	],
	"nodes":[
		{
			"mesh":0,
			"name":"Mesa_Com_Globo_Holo",
			"rotation":[
				0,
				-1,
				0,
				1.6292068494294654e-07
			],
			"translation":[
				0,
				0.0006256103515625,
				16.737751007080078
			]
		}
	],
	"materials":[
		{
			"doubleSided":true,
			"name":"Projecao",
			"pbrMetallicRoughness":{
				"baseColorFactor":[
					0.800000011920929,
					0.800000011920929,
					0.800000011920929,
					1
				],
				"metallicFactor":0,
				"roughnessFactor":0.5
			}
		}
	],
	"meshes":[
		{
			"name":"Sphere.002",
			"primitives":[
				{
					"attributes":{
						"POSITION":0,
						"TEXCOORD_0":1,
						"NORMAL":2
					},
					"indices":3,
					"material":0
				}
			]
		}
	],
	"accessors":[
		{
			"bufferView":0,
			"componentType":5126,
			"count":1056,
			"max":[
				8.703123092651367,
				1.023056983947754,
				3.223219871520996
			],
			"min":[
				-8.702291488647461,
				0.834565281867981,
				-11.470399856567383
			],
			"type":"VEC3"
		},
		{
			"bufferView":1,
			"componentType":5126,
			"count":1056,
			"type":"VEC2"
		},
		{
			"bufferView":2,
			"componentType":5126,
			"count":1056,
			"type":"VEC3"
		},
		{
			"bufferView":3,
			"componentType":5123,
			"count":1728,
			"type":"SCALAR"
		}
	],
	"bufferViews":[
		{
			"buffer":0,
			"byteLength":12672,
			"byteOffset":0,
			"target":34962
		},
		{
			"buffer":0,
			"byteLength":8448,
			"byteOffset":12672,
			"target":34962
		},
		{
			"buffer":0,
			"byteLength":12672,
			"byteOffset":21120,
			"target":34962
		},
		{
			"buffer":0,
			"byteLength":3456,
			"byteOffset":33792,
			"target":34963
		}
	],
	"buffers":[
		{
			"byteLength":37248,
			"uri":"data:application/octet-stream;base64,"
		}
	]
}
