{
	"asset":{
		"generator":"Khronos glTF Blender I/O v3.5.30",
		"version":"2.0"
	},
	"scene":0,
	"scenes":[
		{
			"name":"Scene",
			"nodes":[
				0
			]
		}
	],
	"nodes":[
		{
			"mesh":0,
			"name":"Monitor_Chao._Tela.004",
			"rotation":[
				0,
				-0.8660252690315247,
				0,
				0.5000002384185791
			],
			"translation":[
				-0.005986213684082031,
				1.4404268264770508,
				24.434471130371094
			]
		}
	],
	"materials":[
		{
			"doubleSided":true,
			"name":"Monitor2",
			"pbrMetallicRoughness":{
				"baseColorFactor":[
					0.800000011920929,
					0.800000011920929,
					0.800000011920929,
					1
				],
				"metallicFactor":0,
				"roughnessFactor":0.5
			}
		}
	],
	"meshes":[
		{
			"name":"Cube.176",
			"primitives":[
				{
					"attributes":{
						"POSITION":0,
						"TEXCOORD_0":1,
						"NORMAL":2
					},
					"indices":3,
					"material":0
				}
			]
		}
	],
	"accessors":[
		{
			"bufferView":0,
			"componentType":5126,
			"count":60,
			"max":[
				9.18179702758789,
				1.6512494087219238,
				11.285113334655762
			],
			"min":[
				-6.612520694732666,
				-0.9640825986862183,
				-11.402701377868652
			],
			"type":"VEC3"
		},
		{
			"bufferView":1,
			"componentType":5126,
			"count":60,
			"type":"VEC2"
		},
		{
			"bufferView":2,
			"componentType":5126,
			"count":60,
			"type":"VEC3"
		},
		{
			"bufferView":3,
			"componentType":5123,
			"count":144,
			"type":"SCALAR"
		}
	],
	"bufferViews":[
		{
			"buffer":0,
			"byteLength":720,
			"byteOffset":0,
			"target":34962
		},
		{
			"buffer":0,
			"byteLength":480,
			"byteOffset":720,
			"target":34962
		},
		{
			"buffer":0,
			"byteLength":720,
			"byteOffset":1200,
			"target":34962
		},
		{
			"buffer":0,
			"byteLength":288,
			"byteOffset":1920,
			"target":34963
		}
	],
	"buffers":[
		{
			"byteLength":2208,
			"uri":"data:application/octet-stream;base64,"
		}
	]
}
