{
	"asset":{
		"generator":"Khronos glTF Blender I/O v3.5.30",
		"version":"2.0"
	},
	"scene":0,
	"scenes":[
		{
			"name":"Scene",
			"nodes":[
				0
			]
		}
	],
	"nodes":[
		{
			"mesh":0,
			"name":"Arvore_media_01.061",
			"rotation":[
				0,
				-0.38268306851387024,
				0,
				0.9238796830177307
			],
			"translation":[
				-0.007372856140136719,
				0.934624195098877,
				-52.13432693481445
			]
		}
	],
	"materials":[
		{
			"doubleSided":true,
			"name":"Atlas_Cenario",
			"pbrMetallicRoughness":{
				"baseColorTexture":{
					"index":0
				},
				"metallicFactor":0,
				"roughnessFactor":0.5
			}
		}
	],
	"meshes":[
		{
			"name":"Cube.353",
			"primitives":[
				{
					"attributes":{
						"POSITION":0,
						"TEXCOORD_0":1,
						"NORMAL":2
					},
					"indices":3,
					"material":0
				}
			]
		}
	],
	"textures":[
		{
			"sampler":0,
			"source":0
		}
	],
	"images":[
		{
			"bufferView":4,
			"mimeType":"image/png",
			"name":"Atlas_Cenario"
		}
	],
	"accessors":[
		{
			"bufferView":0,
			"componentType":5126,
			"count":34472,
			"max":[
				26.729476928710938,
				0.6641741991043091,
				26.773929595947266
			],
			"min":[
				-21.157310485839844,
				-0.934624195098877,
				-21.06946563720703
			],
			"type":"VEC3"
		},
		{
			"bufferView":1,
			"componentType":5126,
			"count":34472,
			"type":"VEC2"
		},
		{
			"bufferView":2,
			"componentType":5126,
			"count":34472,
			"type":"VEC3"
		},
		{
			"bufferView":3,
			"componentType":5123,
			"count":41850,
			"type":"SCALAR"
		}
	],
	"bufferViews":[
		{
			"buffer":0,
			"byteLength":413664,
			"byteOffset":0,
			"target":34962
		},
		{
			"buffer":0,
			"byteLength":275776,
			"byteOffset":413664,
			"target":34962
		},
		{
			"buffer":0,
			"byteLength":413664,
			"byteOffset":689440,
			"target":34962
		},
		{
			"buffer":0,
			"byteLength":83700,
			"byteOffset":1103104,
			"target":34963
		},
		{
			"buffer":0,
			"byteLength":424609,
			"byteOffset":1186804
		}
	],
	"samplers":[
		{
			"magFilter":9729,
			"minFilter":9987
		}
	],
	"buffers":[
		{
			"byteLength":1611416,
			"uri":"data:application/octet-stream;base64,"
		}
	]
}
