{
	"asset":{
		"generator":"Khronos glTF Blender I/O v3.5.30",
		"version":"2.0"
	},
	"scene":0,
	"scenes":[
		{
			"name":"Scene",
			"nodes":[
				0
			]
		}
	],
	"nodes":[
		{
			"mesh":0,
			"name":"Cube.272",
			"rotation":[
				0,
				-1,
				0,
				1.6292068494294654e-07
			],
			"scale":[
				1,
				0.6250311732292175,
				1
			],
			"translation":[
				-0.004817962646484375,
				2.4821672439575195,
				27.15993881225586
			]
		}
	],
	"meshes":[
		{
			"name":"Cube.142",
			"primitives":[
				{
					"attributes":{
						"POSITION":0,
						"TEXCOORD_0":1,
						"NORMAL":2
					},
					"indices":3
				}
			]
		}
	],
	"accessors":[
		{
			"bufferView":0,
			"componentType":5126,
			"count":624,
			"max":[
				89.9582748413086,
				4.028334617614746,
				94.33502197265625
			],
			"min":[
				-89.91902160644531,
				-3.971275806427002,
				-44.32796096801758
			],
			"type":"VEC3"
		},
		{
			"bufferView":1,
			"componentType":5126,
			"count":624,
			"type":"VEC2"
		},
		{
			"bufferView":2,
			"componentType":5126,
			"count":624,
			"type":"VEC3"
		},
		{
			"bufferView":3,
			"componentType":5123,
			"count":1020,
			"type":"SCALAR"
		}
	],
	"bufferViews":[
		{
			"buffer":0,
			"byteLength":7488,
			"byteOffset":0,
			"target":34962
		},
		{
			"buffer":0,
			"byteLength":4992,
			"byteOffset":7488,
			"target":34962
		},
		{
			"buffer":0,
			"byteLength":7488,
			"byteOffset":12480,
			"target":34962
		},
		{
			"buffer":0,
			"byteLength":2040,
			"byteOffset":19968,
			"target":34963
		}
	],
	"buffers":[
		{
			"byteLength":22008,
			"uri":"data:application/octet-stream;base64,"
		}
	]
}
