{
	"asset":{
		"generator":"Khronos glTF Blender I/O v3.5.30",
		"version":"2.0"
	},
	"scene":0,
	"scenes":[
		{
			"name":"Scene",
			"nodes":[
				0
			]
		}
	],
	"nodes":[
		{
			"mesh":0,
			"name":"Parede_Museu_08.021",
			"rotation":[
				0,
				0.4281347692012787,
				0,
				0.9037148952484131
			],
			"scale":[
				1,
				0.6250311732292175,
				1
			],
			"translation":[
				22.72037696838379,
				2.5000038146972656,
				-29.863685607910156
			]
		}
	],
	"meshes":[
		{
			"name":"Cube.368",
			"primitives":[
				{
					"attributes":{
						"POSITION":0,
						"TEXCOORD_0":1,
						"NORMAL":2
					},
					"indices":3
				}
			]
		}
	],
	"accessors":[
		{
			"bufferView":0,
			"componentType":5126,
			"count":408,
			"max":[
				25.040796279907227,
				3.999800682067871,
				77.41390228271484
			],
			"min":[
				-107.47958374023438,
				-3.999809741973877,
				-70.14700317382812
			],
			"type":"VEC3"
		},
		{
			"bufferView":1,
			"componentType":5126,
			"count":408,
			"type":"VEC2"
		},
		{
			"bufferView":2,
			"componentType":5126,
			"count":408,
			"type":"VEC3"
		},
		{
			"bufferView":3,
			"componentType":5123,
			"count":612,
			"type":"SCALAR"
		}
	],
	"bufferViews":[
		{
			"buffer":0,
			"byteLength":4896,
			"byteOffset":0,
			"target":34962
		},
		{
			"buffer":0,
			"byteLength":3264,
			"byteOffset":4896,
			"target":34962
		},
		{
			"buffer":0,
			"byteLength":4896,
			"byteOffset":8160,
			"target":34962
		},
		{
			"buffer":0,
			"byteLength":1224,
			"byteOffset":13056,
			"target":34963
		}
	],
	"buffers":[
		{
			"byteLength":14280,
			"uri":"data:application/octet-stream;base64,"
		}
	]
}
