{
	"asset":{
		"generator":"Khronos glTF Blender I/O v3.5.30",
		"version":"2.0"
	},
	"scene":0,
	"scenes":[
		{
			"name":"Scene",
			"nodes":[
				0
			]
		}
	],
	"nodes":[
		{
			"mesh":0,
			"name":"CanteiroArbursto.002",
			"rotation":[
				0,
				-0.7071067094802856,
				0,
				0.7071068286895752
			],
			"translation":[
				0,
				0.10000000149011612,
				0
			]
		}
	],
	"meshes":[
		{
			"name":"Circle.016",
			"primitives":[
				{
					"attributes":{
						"POSITION":0,
						"TEXCOORD_0":1,
						"NORMAL":2
					},
					"indices":3
				}
			]
		}
	],
	"accessors":[
		{
			"bufferView":0,
			"componentType":5126,
			"count":444,
			"max":[
				0.25,
				0.6714498400688171,
				1.399999976158142
			],
			"min":[
				-0.25,
				-0.09999997913837433,
				-1.399999976158142
			],
			"type":"VEC3"
		},
		{
			"bufferView":1,
			"componentType":5126,
			"count":444,
			"type":"VEC2"
		},
		{
			"bufferView":2,
			"componentType":5126,
			"count":444,
			"type":"VEC3"
		},
		{
			"bufferView":3,
			"componentType":5123,
			"count":1056,
			"type":"SCALAR"
		}
	],
	"bufferViews":[
		{
			"buffer":0,
			"byteLength":5328,
			"byteOffset":0,
			"target":34962
		},
		{
			"buffer":0,
			"byteLength":3552,
			"byteOffset":5328,
			"target":34962
		},
		{
			"buffer":0,
			"byteLength":5328,
			"byteOffset":8880,
			"target":34962
		},
		{
			"buffer":0,
			"byteLength":2112,
			"byteOffset":14208,
			"target":34963
		}
	],
	"buffers":[
		{
			"byteLength":16320,
			"uri":"data:application/octet-stream;base64,"
		}
	]
}
