{
	"asset":{
		"generator":"Khronos glTF Blender I/O v3.5.30",
		"version":"2.0"
	},
	"scene":0,
	"scenes":[
		{
			"name":"Scene",
			"nodes":[
				0
			]
		}
	],
	"nodes":[
		{
			"mesh":0,
			"name":"Banco.020",
			"rotation":[
				0,
				-1,
				0,
				1.6292068494294654e-07
			],
			"translation":[
				0,
				0.20000000298023224,
				0
			]
		}
	],
	"meshes":[
		{
			"name":"Cube.388",
			"primitives":[
				{
					"attributes":{
						"POSITION":0,
						"TEXCOORD_0":1,
						"NORMAL":2
					},
					"indices":3
				}
			]
		}
	],
	"accessors":[
		{
			"bufferView":0,
			"componentType":5126,
			"count":3874,
			"max":[
				5.181408405303955,
				1.5255218744277954,
				0.3694743514060974
			],
			"min":[
				-4.946804046630859,
				-0.20000001788139343,
				-0.44705864787101746
			],
			"type":"VEC3"
		},
		{
			"bufferView":1,
			"componentType":5126,
			"count":3874,
			"type":"VEC2"
		},
		{
			"bufferView":2,
			"componentType":5126,
			"count":3874,
			"type":"VEC3"
		},
		{
			"bufferView":3,
			"componentType":5123,
			"count":6396,
			"type":"SCALAR"
		}
	],
	"bufferViews":[
		{
			"buffer":0,
			"byteLength":46488,
			"byteOffset":0,
			"target":34962
		},
		{
			"buffer":0,
			"byteLength":30992,
			"byteOffset":46488,
			"target":34962
		},
		{
			"buffer":0,
			"byteLength":46488,
			"byteOffset":77480,
			"target":34962
		},
		{
			"buffer":0,
			"byteLength":12792,
			"byteOffset":123968,
			"target":34963
		}
	],
	"buffers":[
		{
			"byteLength":136760,
			"uri":"data:application/octet-stream;base64,"
		}
	]
}
