{
	"asset":{
		"generator":"Khronos glTF Blender I/O v3.5.30",
		"version":"2.0"
	},
	"scene":0,
	"scenes":[
		{
			"name":"Scene",
			"nodes":[
				0
			]
		}
	],
	"nodes":[
		{
			"mesh":0,
			"name":"Planta01.001",
			"translation":[
				0,
				3.318039894104004,
				0
			]
		}
	],
	"meshes":[
		{
			"name":"Icosphere.004",
			"primitives":[
				{
					"attributes":{
						"POSITION":0,
						"TEXCOORD_0":1,
						"NORMAL":2
					},
					"indices":3
				}
			]
		}
	],
	"accessors":[
		{
			"bufferView":0,
			"componentType":5126,
			"count":2208,
			"max":[
				2.500000476837158,
				1.4979908466339111,
				3.203718900680542
			],
			"min":[
				-2.500000476837158,
				-3.3228485584259033,
				-1.296282410621643
			],
			"type":"VEC3"
		},
		{
			"bufferView":1,
			"componentType":5126,
			"count":2208,
			"type":"VEC2"
		},
		{
			"bufferView":2,
			"componentType":5126,
			"count":2208,
			"type":"VEC3"
		},
		{
			"bufferView":3,
			"componentType":5123,
			"count":3384,
			"type":"SCALAR"
		}
	],
	"bufferViews":[
		{
			"buffer":0,
			"byteLength":26496,
			"byteOffset":0,
			"target":34962
		},
		{
			"buffer":0,
			"byteLength":17664,
			"byteOffset":26496,
			"target":34962
		},
		{
			"buffer":0,
			"byteLength":26496,
			"byteOffset":44160,
			"target":34962
		},
		{
			"buffer":0,
			"byteLength":6768,
			"byteOffset":70656,
			"target":34963
		}
	],
	"buffers":[
		{
			"byteLength":77424,
			"uri":"data:application/octet-stream;base64,"
		}
	]
}
