{
	"asset":{
		"generator":"Khronos glTF Blender I/O v3.5.30",
		"version":"2.0"
	},
	"scene":0,
	"scenes":[
		{
			"name":"Scene",
			"nodes":[
				0
			]
		}
	],
	"nodes":[
		{
			"mesh":0,
			"name":"Planta02.041",
			"rotation":[
				1,
				0,
				0,
				0
			],
			"scale":[
				-1.1349328756332397,
				-1.1349328756332397,
				-1.1349328756332397
			],
			"translation":[
				0,
				0.39326900243759155,
				0
			]
		}
	],
	"meshes":[
		{
			"name":"Cube.494",
			"primitives":[
				{
					"attributes":{
						"POSITION":0,
						"TEXCOORD_0":1,
						"NORMAL":2
					},
					"indices":3
				}
			]
		}
	],
	"accessors":[
		{
			"bufferView":0,
			"componentType":5126,
			"count":1481,
			"max":[
				0.4082627296447754,
				2.4464173316955566,
				0.4082631766796112
			],
			"min":[
				-0.4082627296447754,
				-0.34651249647140503,
				-0.4082621932029724
			],
			"type":"VEC3"
		},
		{
			"bufferView":1,
			"componentType":5126,
			"count":1481,
			"type":"VEC2"
		},
		{
			"bufferView":2,
			"componentType":5126,
			"count":1481,
			"type":"VEC3"
		},
		{
			"bufferView":3,
			"componentType":5123,
			"count":2124,
			"type":"SCALAR"
		}
	],
	"bufferViews":[
		{
			"buffer":0,
			"byteLength":17772,
			"byteOffset":0,
			"target":34962
		},
		{
			"buffer":0,
			"byteLength":11848,
			"byteOffset":17772,
			"target":34962
		},
		{
			"buffer":0,
			"byteLength":17772,
			"byteOffset":29620,
			"target":34962
		},
		{
			"buffer":0,
			"byteLength":4248,
			"byteOffset":47392,
			"target":34963
		}
	],
	"buffers":[
		{
			"byteLength":51640,
			"uri":"data:application/octet-stream;base64,"
		}
	]
}
