{
	"asset":{
		"generator":"Khronos glTF Blender I/O v3.5.30",
		"version":"2.0"
	},
	"scene":0,
	"scenes":[
		{
			"name":"Scene",
			"nodes":[
				0
			]
		}
	],
	"nodes":[
		{
			"mesh":0,
			"name":"Planta03.017",
			"translation":[
				0,
				0.6250360012054443,
				0
			]
		}
	],
	"meshes":[
		{
			"name":"Sphere.024",
			"primitives":[
				{
					"attributes":{
						"POSITION":0,
						"TEXCOORD_0":1,
						"NORMAL":2
					},
					"indices":3
				}
			]
		}
	],
	"accessors":[
		{
			"bufferView":0,
			"componentType":5126,
			"count":2169,
			"max":[
				0.30000001192092896,
				0.22677013278007507,
				0.30000728368759155
			],
			"min":[
				-0.30000001192092896,
				-0.6250365376472473,
				-0.29999271035194397
			],
			"type":"VEC3"
		},
		{
			"bufferView":1,
			"componentType":5126,
			"count":2169,
			"type":"VEC2"
		},
		{
			"bufferView":2,
			"componentType":5126,
			"count":2169,
			"type":"VEC3"
		},
		{
			"bufferView":3,
			"componentType":5123,
			"count":3168,
			"type":"SCALAR"
		}
	],
	"bufferViews":[
		{
			"buffer":0,
			"byteLength":26028,
			"byteOffset":0,
			"target":34962
		},
		{
			"buffer":0,
			"byteLength":17352,
			"byteOffset":26028,
			"target":34962
		},
		{
			"buffer":0,
			"byteLength":26028,
			"byteOffset":43380,
			"target":34962
		},
		{
			"buffer":0,
			"byteLength":6336,
			"byteOffset":69408,
			"target":34963
		}
	],
	"buffers":[
		{
			"byteLength":75744,
			"uri":"data:application/octet-stream;base64,"
		}
	]
}
