{
	"asset":{
		"generator":"Khronos glTF Blender I/O v3.5.30",
		"version":"2.0"
	},
	"scene":0,
	"scenes":[
		{
			"name":"Scene",
			"nodes":[
				0
			]
		}
	],
	"nodes":[
		{
			"mesh":0,
			"name":"Cadeira03.001",
			"translation":[
				0,
				0.46000000834465027,
				0
			]
		}
	],
	"meshes":[
		{
			"name":"Cube.277",
			"primitives":[
				{
					"attributes":{
						"POSITION":0,
						"TEXCOORD_0":1,
						"NORMAL":2
					},
					"indices":3
				}
			]
		}
	],
	"accessors":[
		{
			"bufferView":0,
			"componentType":5126,
			"count":364,
			"max":[
				2.0664334297180176,
				0.5400000810623169,
				1.3403632640838623
			],
			"min":[
				-2.068495035171509,
				-0.46000000834465027,
				-0.8173633813858032
			],
			"type":"VEC3"
		},
		{
			"bufferView":1,
			"componentType":5126,
			"count":364,
			"type":"VEC2"
		},
		{
			"bufferView":2,
			"componentType":5126,
			"count":364,
			"type":"VEC3"
		},
		{
			"bufferView":3,
			"componentType":5123,
			"count":744,
			"type":"SCALAR"
		}
	],
	"bufferViews":[
		{
			"buffer":0,
			"byteLength":4368,
			"byteOffset":0,
			"target":34962
		},
		{
			"buffer":0,
			"byteLength":2912,
			"byteOffset":4368,
			"target":34962
		},
		{
			"buffer":0,
			"byteLength":4368,
			"byteOffset":7280,
			"target":34962
		},
		{
			"buffer":0,
			"byteLength":1488,
			"byteOffset":11648,
			"target":34963
		}
	],
	"buffers":[
		{
			"byteLength":13136,
			"uri":"data:application/octet-stream;base64,"
		}
	]
}
