{
	"asset":{
		"generator":"Khronos glTF Blender I/O v3.5.30",
		"version":"2.0"
	},
	"scene":0,
	"scenes":[
		{
			"name":"Scene",
			"nodes":[
				0
			]
		}
	],
	"nodes":[
		{
			"mesh":0,
			"name":"Cadeira03.001",
			"translation":[
				0,
				1.38510000705719,
				0
			]
		}
	],
	"meshes":[
		{
			"name":"Cube.050",
			"primitives":[
				{
					"attributes":{
						"POSITION":0,
						"TEXCOORD_0":1,
						"NORMAL":2
					},
					"indices":3
				}
			]
		}
	],
	"accessors":[
		{
			"bufferView":0,
			"componentType":5126,
			"count":3322,
			"max":[
				2.083895683288574,
				0.7788272500038147,
				1.5891562700271606
			],
			"min":[
				-2.239915370941162,
				-1.3851042985916138,
				-0.5685703754425049
			],
			"type":"VEC3"
		},
		{
			"bufferView":1,
			"componentType":5126,
			"count":3322,
			"type":"VEC2"
		},
		{
			"bufferView":2,
			"componentType":5126,
			"count":3322,
			"type":"VEC3"
		},
		{
			"bufferView":3,
			"componentType":5123,
			"count":4992,
			"type":"SCALAR"
		}
	],
	"bufferViews":[
		{
			"buffer":0,
			"byteLength":39864,
			"byteOffset":0,
			"target":34962
		},
		{
			"buffer":0,
			"byteLength":26576,
			"byteOffset":39864,
			"target":34962
		},
		{
			"buffer":0,
			"byteLength":39864,
			"byteOffset":66440,
			"target":34962
		},
		{
			"buffer":0,
			"byteLength":9984,
			"byteOffset":106304,
			"target":34963
		}
	],
	"buffers":[
		{
			"byteLength":116288,
			"uri":"data:application/octet-stream;base64,"
		}
	]
}
