{
	"asset":{
		"generator":"Khronos glTF Blender I/O v3.5.30",
		"version":"2.0"
	},
	"scene":0,
	"scenes":[
		{
			"name":"Scene",
			"nodes":[
				0
			]
		}
	],
	"nodes":[
		{
			"mesh":0,
			"name":"Cadeira03.001",
			"translation":[
				0,
				1.3625999689102173,
				0
			]
		}
	],
	"meshes":[
		{
			"name":"Cube.050",
			"primitives":[
				{
					"attributes":{
						"POSITION":0,
						"TEXCOORD_0":1,
						"NORMAL":2
					},
					"indices":3
				}
			]
		}
	],
	"accessors":[
		{
			"bufferView":0,
			"componentType":5126,
			"count":5051,
			"max":[
				3.9232442378997803,
				0.8013274073600769,
				1.5767922401428223
			],
			"min":[
				-3.897810935974121,
				-1.3626041412353516,
				-0.5809379816055298
			],
			"type":"VEC3"
		},
		{
			"bufferView":1,
			"componentType":5126,
			"count":5051,
			"type":"VEC2"
		},
		{
			"bufferView":2,
			"componentType":5126,
			"count":5051,
			"type":"VEC3"
		},
		{
			"bufferView":3,
			"componentType":5123,
			"count":7644,
			"type":"SCALAR"
		}
	],
	"bufferViews":[
		{
			"buffer":0,
			"byteLength":60612,
			"byteOffset":0,
			"target":34962
		},
		{
			"buffer":0,
			"byteLength":40408,
			"byteOffset":60612,
			"target":34962
		},
		{
			"buffer":0,
			"byteLength":60612,
			"byteOffset":101020,
			"target":34962
		},
		{
			"buffer":0,
			"byteLength":15288,
			"byteOffset":161632,
			"target":34963
		}
	],
	"buffers":[
		{
			"byteLength":176920,
			"uri":"data:application/octet-stream;base64,"
		}
	]
}
