{
	"asset":{
		"generator":"Khronos glTF Blender I/O v3.5.30",
		"version":"2.0"
	},
	"scene":0,
	"scenes":[
		{
			"name":"Scene",
			"nodes":[
				0
			]
		}
	],
	"nodes":[
		{
			"mesh":0,
			"name":"Restaurante.002",
			"translation":[
				0,
				3.6363699436187744,
				0
			]
		}
	],
	"meshes":[
		{
			"name":"Cube.038",
			"primitives":[
				{
					"attributes":{
						"POSITION":0,
						"TEXCOORD_0":1,
						"NORMAL":2
					},
					"indices":3
				}
			]
		}
	],
	"accessors":[
		{
			"bufferView":0,
			"componentType":5126,
			"count":272,
			"max":[
				3.2727205753326416,
				0.4365689158439636,
				0.44399741291999817
			],
			"min":[
				-2.727281093597412,
				-3.636363983154297,
				-3.556002616882324
			],
			"type":"VEC3"
		},
		{
			"bufferView":1,
			"componentType":5126,
			"count":272,
			"type":"VEC2"
		},
		{
			"bufferView":2,
			"componentType":5126,
			"count":272,
			"type":"VEC3"
		},
		{
			"bufferView":3,
			"componentType":5123,
			"count":432,
			"type":"SCALAR"
		}
	],
	"bufferViews":[
		{
			"buffer":0,
			"byteLength":3264,
			"byteOffset":0,
			"target":34962
		},
		{
			"buffer":0,
			"byteLength":2176,
			"byteOffset":3264,
			"target":34962
		},
		{
			"buffer":0,
			"byteLength":3264,
			"byteOffset":5440,
			"target":34962
		},
		{
			"buffer":0,
			"byteLength":864,
			"byteOffset":8704,
			"target":34963
		}
	],
	"buffers":[
		{
			"byteLength":9568,
			"uri":"data:application/octet-stream;base64,"
		}
	]
}
