{
	"asset":{
		"generator":"Khronos glTF Blender I/O v3.5.30",
		"version":"2.0"
	},
	"scene":0,
	"scenes":[
		{
			"name":"Scene",
			"nodes":[
				0
			]
		}
	],
	"nodes":[
		{
			"mesh":0,
			"name":"CaixaElevadorCima.005",
			"translation":[
				0,
				1.8636399507522583,
				0
			]
		}
	],
	"meshes":[
		{
			"name":"Cube.081",
			"primitives":[
				{
					"attributes":{
						"POSITION":0,
						"TEXCOORD_0":1,
						"NORMAL":2
					},
					"indices":3
				}
			]
		}
	],
	"accessors":[
		{
			"bufferView":0,
			"componentType":5126,
			"count":349,
			"max":[
				2.2582080364227295,
				3.1398470401763916,
				2.0500006675720215
			],
			"min":[
				-2.2582008838653564,
				-1.8636362552642822,
				-2.0500030517578125
			],
			"type":"VEC3"
		},
		{
			"bufferView":1,
			"componentType":5126,
			"count":349,
			"type":"VEC2"
		},
		{
			"bufferView":2,
			"componentType":5126,
			"count":349,
			"type":"VEC3"
		},
		{
			"bufferView":3,
			"componentType":5123,
			"count":888,
			"type":"SCALAR"
		}
	],
	"bufferViews":[
		{
			"buffer":0,
			"byteLength":4188,
			"byteOffset":0,
			"target":34962
		},
		{
			"buffer":0,
			"byteLength":2792,
			"byteOffset":4188,
			"target":34962
		},
		{
			"buffer":0,
			"byteLength":4188,
			"byteOffset":6980,
			"target":34962
		},
		{
			"buffer":0,
			"byteLength":1776,
			"byteOffset":11168,
			"target":34963
		}
	],
	"buffers":[
		{
			"byteLength":12944,
			"uri":"data:application/octet-stream;base64,"
		}
	]
}
