{
	"asset":{
		"generator":"Khronos glTF Blender I/O v3.5.30",
		"version":"2.0"
	},
	"scene":0,
	"scenes":[
		{
			"name":"Scene",
			"nodes":[
				0
			]
		}
	],
	"nodes":[
		{
			"mesh":0,
			"name":"Circle.057",
			"scale":[
				1,
				0.6136631369590759,
				1
			],
			"translation":[
				0,
				0.6672800183296204,
				0
			]
		}
	],
	"meshes":[
		{
			"name":"Circle.502",
			"primitives":[
				{
					"attributes":{
						"POSITION":0,
						"TEXCOORD_0":1,
						"NORMAL":2
					},
					"indices":3
				}
			]
		}
	],
	"accessors":[
		{
			"bufferView":0,
			"componentType":5126,
			"count":960,
			"max":[
				1.9785704612731934,
				0.1567370891571045,
				1.9785704612731934
			],
			"min":[
				-1.9785704612731934,
				-1.0873723030090332,
				-1.9785704612731934
			],
			"type":"VEC3"
		},
		{
			"bufferView":1,
			"componentType":5126,
			"count":960,
			"type":"VEC2"
		},
		{
			"bufferView":2,
			"componentType":5126,
			"count":960,
			"type":"VEC3"
		},
		{
			"bufferView":3,
			"componentType":5123,
			"count":1872,
			"type":"SCALAR"
		}
	],
	"bufferViews":[
		{
			"buffer":0,
			"byteLength":11520,
			"byteOffset":0,
			"target":34962
		},
		{
			"buffer":0,
			"byteLength":7680,
			"byteOffset":11520,
			"target":34962
		},
		{
			"buffer":0,
			"byteLength":11520,
			"byteOffset":19200,
			"target":34962
		},
		{
			"buffer":0,
			"byteLength":3744,
			"byteOffset":30720,
			"target":34963
		}
	],
	"buffers":[
		{
			"byteLength":34464,
			"uri":"data:application/octet-stream;base64,"
		}
	]
}
