{
	"asset":{
		"generator":"Khronos glTF Blender I/O v3.5.30",
		"version":"2.0"
	},
	"scene":0,
	"scenes":[
		{
			"name":"Scene",
			"nodes":[
				0
			]
		}
	],
	"nodes":[
		{
			"mesh":0,
			"name":"Sphere",
			"translation":[
				0,
				2.0258500576019287,
				0
			]
		}
	],
	"meshes":[
		{
			"name":"Sphere",
			"primitives":[
				{
					"attributes":{
						"POSITION":0,
						"TEXCOORD_0":1,
						"NORMAL":2
					},
					"indices":3
				}
			]
		}
	],
	"accessors":[
		{
			"bufferView":0,
			"componentType":5126,
			"count":2784,
			"max":[
				3.1611709594726562,
				1,
				3.1611709594726562
			],
			"min":[
				-3.1611709594726562,
				-1.8491828441619873,
				-3.1611709594726562
			],
			"type":"VEC3"
		},
		{
			"bufferView":1,
			"componentType":5126,
			"count":2784,
			"type":"VEC2"
		},
		{
			"bufferView":2,
			"componentType":5126,
			"count":2784,
			"type":"VEC3"
		},
		{
			"bufferView":3,
			"componentType":5123,
			"count":4572,
			"type":"SCALAR"
		}
	],
	"bufferViews":[
		{
			"buffer":0,
			"byteLength":33408,
			"byteOffset":0,
			"target":34962
		},
		{
			"buffer":0,
			"byteLength":22272,
			"byteOffset":33408,
			"target":34962
		},
		{
			"buffer":0,
			"byteLength":33408,
			"byteOffset":55680,
			"target":34962
		},
		{
			"buffer":0,
			"byteLength":9144,
			"byteOffset":89088,
			"target":34963
		}
	],
	"buffers":[
		{
			"byteLength":98232,
			"uri":"data:application/octet-stream;base64,"
		}
	]
}
