{
	"asset":{
		"generator":"Khronos glTF Blender I/O v3.5.30",
		"version":"2.0"
	},
	"scene":0,
	"scenes":[
		{
			"name":"Scene",
			"nodes":[
				0
			]
		}
	],
	"nodes":[
		{
			"mesh":0,
			"name":"pra\u00e7a",
			"rotation":[
				0,
				0.70710688829422,
				0,
				0.7071066498756409
			]
		}
	],
	"meshes":[
		{
			"name":"Circle.024",
			"primitives":[
				{
					"attributes":{
						"POSITION":0,
						"TEXCOORD_0":1,
						"NORMAL":2
					},
					"indices":3
				}
			]
		}
	],
	"accessors":[
		{
			"bufferView":0,
			"componentType":5126,
			"count":38245,
			"max":[
				34.11265182495117,
				5.107342720031738,
				39.293270111083984
			],
			"min":[
				-33.16291046142578,
				0,
				-14.899259567260742
			],
			"type":"VEC3"
		},
		{
			"bufferView":1,
			"componentType":5126,
			"count":38245,
			"type":"VEC2"
		},
		{
			"bufferView":2,
			"componentType":5126,
			"count":38245,
			"type":"VEC3"
		},
		{
			"bufferView":3,
			"componentType":5123,
			"count":74256,
			"type":"SCALAR"
		}
	],
	"bufferViews":[
		{
			"buffer":0,
			"byteLength":458940,
			"byteOffset":0,
			"target":34962
		},
		{
			"buffer":0,
			"byteLength":305960,
			"byteOffset":458940,
			"target":34962
		},
		{
			"buffer":0,
			"byteLength":458940,
			"byteOffset":764900,
			"target":34962
		},
		{
			"buffer":0,
			"byteLength":148512,
			"byteOffset":1223840,
			"target":34963
		}
	],
	"buffers":[
		{
			"byteLength":1372352,
			"uri":"data:application/octet-stream;base64,"
		}
	]
}
